<svg xmlns="http://www.w3.org/2000/svg" xmlns:xlink="http://www.w3.org/1999/xlink" width="38" zoomAndPan="magnify" viewBox="0 0 28.5 28.5" height="38" preserveAspectRatio="xMidYMid meet" version="1.0"><defs><clipPath id="7de89b52e1"><path d="M 0 0 L 28.007812 0 L 28.007812 28.007812 L 0 28.007812 Z M 0 0 " clip-rule="nonzero"/></clipPath><clipPath id="4bc36db0f4"><path d="M 1 1.324219 L 27 1.324219 L 27 26.386719 L 1 26.386719 Z M 1 1.324219 " clip-rule="nonzero"/></clipPath></defs><g clip-path="url(#7de89b52e1)"><path fill="#ffffff" d="M 0 0 L 28.007812 0 L 28.007812 28.007812 L 0 28.007812 Z M 0 0 " fill-opacity="1" fill-rule="nonzero"/></g><g clip-path="url(#4bc36db0f4)"><path fill="#e8354d" d="M 26.429688 13.765625 C 26.429688 6.894531 20.84375 1.324219 13.953125 1.324219 C 7.0625 1.324219 1.476562 6.894531 1.476562 13.765625 C 1.476562 20.636719 7.0625 26.207031 13.953125 26.207031 C 20.84375 26.207031 26.429688 20.636719 26.429688 13.765625 " fill-opacity="1" fill-rule="nonzero"/></g><path fill="#701a25" d="M 6.246094 12.339844 C 6.246094 12.875 6.679688 13.304688 7.214844 13.304688 L 7.523438 13.304688 C 8.058594 13.304688 8.492188 12.875 8.492188 12.339844 C 8.492188 11.804688 8.058594 11.371094 7.523438 11.371094 L 7.214844 11.371094 C 6.679688 11.371094 6.246094 11.804688 6.246094 12.339844 " fill-opacity="1" fill-rule="nonzero"/><path fill="#701a25" d="M 6.367188 10.210938 C 6.191406 10.53125 6.210938 10.882812 6.410156 10.992188 L 8.582031 12.1875 C 8.785156 12.296875 9.089844 12.125 9.269531 11.804688 C 9.445312 11.484375 9.429688 11.132812 9.226562 11.023438 L 7.054688 9.828125 C 6.851562 9.71875 6.546875 9.886719 6.367188 10.210938 " fill-opacity="1" fill-rule="nonzero"/><path fill="#701a25" d="M 21.367188 10.210938 C 21.546875 10.53125 21.527344 10.882812 21.324219 10.992188 L 19.152344 12.1875 C 18.953125 12.296875 18.644531 12.125 18.464844 11.804688 C 18.289062 11.484375 18.308594 11.132812 18.511719 11.023438 L 20.679688 9.828125 C 20.882812 9.71875 21.191406 9.886719 21.367188 10.210938 " fill-opacity="1" fill-rule="nonzero"/><path fill="#701a25" d="M 19.410156 12.339844 C 19.410156 12.875 19.847656 13.304688 20.382812 13.304688 L 20.6875 13.304688 C 21.226562 13.304688 21.660156 12.875 21.660156 12.339844 C 21.660156 11.804688 21.226562 11.371094 20.6875 11.371094 L 20.382812 11.371094 C 19.847656 11.371094 19.410156 11.804688 19.410156 12.339844 " fill-opacity="1" fill-rule="nonzero"/><path fill="#701a25" d="M 17.652344 18.574219 C 17.410156 18.574219 17.179688 18.429688 17.082031 18.191406 C 17.050781 18.121094 16.246094 16.296875 13.964844 16.296875 C 11.980469 16.296875 10.808594 18.25 10.796875 18.269531 C 10.625 18.5625 10.25 18.660156 9.957031 18.488281 C 9.664062 18.320312 9.5625 17.945312 9.734375 17.652344 C 9.792969 17.546875 11.261719 15.070312 13.957031 15.066406 C 17.089844 15.066406 18.175781 17.617188 18.222656 17.726562 C 18.351562 18.039062 18.199219 18.398438 17.886719 18.527344 C 17.8125 18.558594 17.730469 18.574219 17.652344 18.574219 " fill-opacity="1" fill-rule="nonzero"/></svg>