<svg xmlns="http://www.w3.org/2000/svg" xmlns:xlink="http://www.w3.org/1999/xlink" width="38" zoomAndPan="magnify" viewBox="0 0 28.5 28.5" height="38" preserveAspectRatio="xMidYMid meet" version="1.0"><defs><clipPath id="c54e6c94c0"><path d="M 0 0 L 28.007812 0 L 28.007812 28.007812 L 0 28.007812 Z M 0 0 " clip-rule="nonzero"/></clipPath><clipPath id="36daf1a583"><path d="M 1 1.324219 L 26.71875 1.324219 L 26.71875 26.386719 L 1 26.386719 Z M 1 1.324219 " clip-rule="nonzero"/></clipPath></defs><g clip-path="url(#c54e6c94c0)"><path fill="#ffffff" d="M 0 0 L 28.007812 0 L 28.007812 28.007812 L 0 28.007812 Z M 0 0 " fill-opacity="1" fill-rule="nonzero"/></g><g clip-path="url(#36daf1a583)"><path fill="#fc7e1e" d="M 26.679688 13.765625 C 26.679688 6.894531 21.097656 1.324219 14.207031 1.324219 C 7.316406 1.324219 1.730469 6.894531 1.730469 13.765625 C 1.730469 20.636719 7.316406 26.207031 14.207031 26.207031 C 21.097656 26.207031 26.679688 20.636719 26.679688 13.765625 " fill-opacity="1" fill-rule="nonzero"/></g><path fill="#63320a" d="M 6.691406 12.339844 C 6.691406 12.875 7.125 13.304688 7.660156 13.304688 L 7.96875 13.304688 C 8.503906 13.304688 8.9375 12.875 8.9375 12.339844 C 8.9375 11.804688 8.503906 11.371094 7.96875 11.371094 L 7.660156 11.371094 C 7.125 11.371094 6.691406 11.804688 6.691406 12.339844 " fill-opacity="1" fill-rule="nonzero"/><path fill="#63320a" d="M 19.859375 12.339844 C 19.859375 12.875 20.292969 13.304688 20.828125 13.304688 L 21.136719 13.304688 C 21.671875 13.304688 22.105469 12.875 22.105469 12.339844 C 22.105469 11.804688 21.671875 11.371094 21.136719 11.371094 L 20.828125 11.371094 C 20.292969 11.371094 19.859375 11.804688 19.859375 12.339844 " fill-opacity="1" fill-rule="nonzero"/><path fill="#63320a" d="M 17.898438 18.574219 C 17.65625 18.574219 17.425781 18.429688 17.332031 18.191406 C 17.296875 18.121094 16.492188 16.296875 14.210938 16.296875 C 12.226562 16.296875 11.054688 18.25 11.042969 18.269531 C 10.871094 18.5625 10.496094 18.660156 10.203125 18.488281 C 9.910156 18.320312 9.808594 17.945312 9.980469 17.652344 C 10.039062 17.546875 11.507812 15.070312 14.203125 15.066406 C 17.335938 15.066406 18.421875 17.617188 18.46875 17.726562 C 18.597656 18.039062 18.449219 18.398438 18.132812 18.527344 C 18.054688 18.558594 17.976562 18.574219 17.898438 18.574219 " fill-opacity="1" fill-rule="nonzero"/></svg>