<svg xmlns="http://www.w3.org/2000/svg" xmlns:xlink="http://www.w3.org/1999/xlink" width="38" zoomAndPan="magnify" viewBox="0 0 28.5 28.5" height="38" preserveAspectRatio="xMidYMid meet" version="1.0"><defs><clipPath id="1082e704a7"><path d="M 0 0 L 28.007812 0 L 28.007812 28.007812 L 0 28.007812 Z M 0 0 " clip-rule="nonzero"/></clipPath><clipPath id="92a99c4b61"><path d="M 1 1.324219 L 27 1.324219 L 27 27 L 1 27 Z M 1 1.324219 " clip-rule="nonzero"/></clipPath></defs><g clip-path="url(#1082e704a7)"><path fill="#ffffff" d="M 0 0 L 28.007812 0 L 28.007812 28.007812 L 0 28.007812 Z M 0 0 " fill-opacity="1" fill-rule="nonzero"/></g><g clip-path="url(#92a99c4b61)"><path fill="#ffce2b" d="M 26.488281 13.765625 C 26.488281 6.894531 20.902344 1.324219 14.011719 1.324219 C 7.121094 1.324219 1.535156 6.894531 1.535156 13.765625 C 1.535156 20.636719 7.121094 26.207031 14.011719 26.207031 C 20.902344 26.207031 26.488281 20.636719 26.488281 13.765625 " fill-opacity="1" fill-rule="nonzero"/></g><path fill="#594208" d="M 6.304688 12.277344 C 6.304688 12.8125 6.738281 13.246094 7.273438 13.246094 L 7.582031 13.246094 C 8.117188 13.246094 8.550781 12.8125 8.550781 12.277344 C 8.550781 11.742188 8.117188 11.3125 7.582031 11.3125 L 7.273438 11.3125 C 6.738281 11.3125 6.304688 11.742188 6.304688 12.277344 " fill-opacity="1" fill-rule="nonzero"/><path fill="#594208" d="M 19.46875 12.277344 C 19.46875 12.8125 19.90625 13.246094 20.441406 13.246094 L 20.746094 13.246094 C 21.285156 13.246094 21.71875 12.8125 21.71875 12.277344 C 21.71875 11.742188 21.285156 11.3125 20.746094 11.3125 L 20.441406 11.3125 C 19.90625 11.3125 19.46875 11.742188 19.46875 12.277344 " fill-opacity="1" fill-rule="nonzero"/><path fill="#594208" d="M 15.675781 18.050781 C 15.605469 18.050781 15.53125 18.039062 15.460938 18.015625 L 10.933594 16.335938 C 10.613281 16.214844 10.453125 15.863281 10.570312 15.542969 C 10.691406 15.226562 11.042969 15.066406 11.363281 15.183594 L 15.890625 16.863281 C 16.210938 16.980469 16.371094 17.335938 16.253906 17.652344 C 16.160156 17.898438 15.925781 18.050781 15.675781 18.050781 " fill-opacity="1" fill-rule="nonzero"/></svg>