<svg xmlns="http://www.w3.org/2000/svg" xmlns:xlink="http://www.w3.org/1999/xlink" width="38" zoomAndPan="magnify" viewBox="0 0 28.5 28.5" height="38" preserveAspectRatio="xMidYMid meet" version="1.0"><defs><clipPath id="eca237a777"><path d="M 0 0 L 28.007812 0 L 28.007812 28.007812 L 0 28.007812 Z M 0 0 " clip-rule="nonzero"/></clipPath><clipPath id="20cd192452"><path d="M 1 1.324219 L 27 1.324219 L 27 26.386719 L 1 26.386719 Z M 1 1.324219 " clip-rule="nonzero"/></clipPath></defs><g clip-path="url(#eca237a777)"><path fill="#ffffff" d="M 0 0 L 28.007812 0 L 28.007812 28.007812 L 0 28.007812 Z M 0 0 " fill-opacity="1" fill-rule="nonzero"/></g><g clip-path="url(#20cd192452)"><path fill="#acd91a" d="M 26.820312 13.765625 C 26.820312 6.894531 21.238281 1.324219 14.347656 1.324219 C 7.457031 1.324219 1.871094 6.894531 1.871094 13.765625 C 1.871094 20.636719 7.457031 26.207031 14.347656 26.207031 C 21.238281 26.207031 26.820312 20.636719 26.820312 13.765625 " fill-opacity="1" fill-rule="nonzero"/></g><path fill="#495c0b" d="M 6.640625 12.339844 C 6.640625 12.875 7.074219 13.304688 7.609375 13.304688 L 7.917969 13.304688 C 8.453125 13.304688 8.886719 12.875 8.886719 12.339844 C 8.886719 11.804688 8.453125 11.371094 7.917969 11.371094 L 7.609375 11.371094 C 7.074219 11.371094 6.640625 11.804688 6.640625 12.339844 " fill-opacity="1" fill-rule="nonzero"/><path fill="#495c0b" d="M 19.804688 12.339844 C 19.804688 12.875 20.238281 13.304688 20.777344 13.304688 L 21.082031 13.304688 C 21.617188 13.304688 22.050781 12.875 22.050781 12.339844 C 22.050781 11.804688 21.617188 11.371094 21.082031 11.371094 L 20.777344 11.371094 C 20.238281 11.371094 19.804688 11.804688 19.804688 12.339844 " fill-opacity="1" fill-rule="nonzero"/><path fill="#495c0b" d="M 14.355469 19.191406 C 11.648438 19.1875 10.179688 16.710938 10.121094 16.605469 C 9.949219 16.3125 10.050781 15.9375 10.34375 15.765625 C 10.636719 15.597656 11.015625 15.699219 11.183594 15.988281 C 11.207031 16.027344 12.378906 17.960938 14.347656 17.964844 C 16.636719 17.964844 17.4375 16.140625 17.472656 16.0625 C 17.605469 15.75 17.964844 15.601562 18.277344 15.734375 C 18.589844 15.863281 18.738281 16.21875 18.609375 16.53125 C 18.566406 16.640625 17.476562 19.191406 14.355469 19.191406 " fill-opacity="1" fill-rule="nonzero"/></svg>