<svg xmlns="http://www.w3.org/2000/svg" xmlns:xlink="http://www.w3.org/1999/xlink" width="38" zoomAndPan="magnify" viewBox="0 0 28.5 28.5" height="38" preserveAspectRatio="xMidYMid meet" version="1.0"><defs><clipPath id="8c777974e1"><path d="M 0 0 L 28.007812 0 L 28.007812 28.007812 L 0 28.007812 Z M 0 0 " clip-rule="nonzero"/></clipPath><clipPath id="7bb6073875"><path d="M 1.296875 1.324219 L 26.414062 1.324219 L 26.414062 26.371094 L 1.296875 26.371094 Z M 1.296875 1.324219 " clip-rule="nonzero"/></clipPath></defs><g clip-path="url(#8c777974e1)"><path fill="#ffffff" d="M 0 0 L 28.007812 0 L 28.007812 28.007812 L 0 28.007812 Z M 0 0 " fill-opacity="1" fill-rule="nonzero"/></g><g clip-path="url(#7bb6073875)"><path fill="#4ecc58" d="M 26.414062 13.765625 C 26.414062 6.894531 20.828125 1.324219 13.9375 1.324219 C 7.046875 1.324219 1.460938 6.894531 1.460938 13.765625 C 1.460938 20.636719 7.046875 26.207031 13.9375 26.207031 C 20.828125 26.207031 26.414062 20.636719 26.414062 13.765625 " fill-opacity="1" fill-rule="nonzero"/></g><path fill="#1f5223" d="M 6.234375 12.339844 C 6.234375 12.875 6.667969 13.304688 7.203125 13.304688 L 7.511719 13.304688 C 8.046875 13.304688 8.480469 12.875 8.480469 12.339844 C 8.480469 11.804688 8.046875 11.371094 7.511719 11.371094 L 7.203125 11.371094 C 6.667969 11.371094 6.234375 11.804688 6.234375 12.339844 " fill-opacity="1" fill-rule="nonzero"/><path fill="#1f5223" d="M 19.398438 12.339844 C 19.398438 12.875 19.832031 13.304688 20.367188 13.304688 L 20.675781 13.304688 C 21.210938 13.304688 21.644531 12.875 21.644531 12.339844 C 21.644531 11.804688 21.210938 11.371094 20.675781 11.371094 L 20.367188 11.371094 C 19.832031 11.371094 19.398438 11.804688 19.398438 12.339844 " fill-opacity="1" fill-rule="nonzero"/><path fill="#1f5223" d="M 9.195312 15.285156 C 9.195312 15.285156 10.890625 19.222656 13.9375 19.230469 C 17.472656 19.238281 18.683594 15.285156 18.683594 15.285156 L 9.195312 15.285156 " fill-opacity="1" fill-rule="nonzero"/></svg>